<mxfile host="www.draw.io" modified="2020-01-20T08:25:11.793Z" agent="Mozilla/5.0 (Macintosh; Intel Mac OS X 10_14_6) AppleWebKit/537.36 (KHTML, like Gecko) Chrome/79.0.3945.117 Safari/537.36" etag="r4gSsvptT4ZBJ4DbuIbT" version="12.5.5" type="github" pages="5">
  <diagram id="C5RBs43oDa-KdzZeNtuy" name="main">
    <mxGraphModel dx="1373" dy="773" grid="1" gridSize="10" guides="1" tooltips="1" connect="1" arrows="1" fold="1" page="1" pageScale="1" pageWidth="827" pageHeight="1169" math="0" shadow="0">
      <root>
        <mxCell id="WIyWlLk6GJQsqaUBKTNV-0"/>
        <mxCell id="WIyWlLk6GJQsqaUBKTNV-1" parent="WIyWlLk6GJQsqaUBKTNV-0"/>
        <mxCell id="p2lohj0I56FqNKijgw4W-19" value="" style="group" parent="WIyWlLk6GJQsqaUBKTNV-1" vertex="1" connectable="0">
          <mxGeometry x="40" y="230" width="487" height="120" as="geometry"/>
        </mxCell>
        <mxCell id="p2lohj0I56FqNKijgw4W-8" value="&lt;span style=&quot;white-space: normal&quot;&gt;核心功能&lt;/span&gt;" style="rounded=0;whiteSpace=wrap;html=1;align=left;" parent="p2lohj0I56FqNKijgw4W-19" vertex="1">
          <mxGeometry width="487.00000000000006" height="120" as="geometry"/>
        </mxCell>
        <mxCell id="IpZOTP64NA2XFBKvStlP-2" style="edgeStyle=orthogonalEdgeStyle;rounded=0;orthogonalLoop=1;jettySize=auto;html=1;exitX=0.5;exitY=1;exitDx=0;exitDy=0;entryX=0;entryY=0.5;entryDx=0;entryDy=0;" parent="p2lohj0I56FqNKijgw4W-19" source="p2lohj0I56FqNKijgw4W-9" target="p2lohj0I56FqNKijgw4W-11" edge="1">
          <mxGeometry relative="1" as="geometry"/>
        </mxCell>
        <mxCell id="p2lohj0I56FqNKijgw4W-9" value="入库管理" style="rounded=0;whiteSpace=wrap;html=1;" parent="p2lohj0I56FqNKijgw4W-19" vertex="1">
          <mxGeometry x="103.08166666666668" y="30" width="73.05" height="35" as="geometry"/>
        </mxCell>
        <mxCell id="GnM0qBkE5uQE6rj0o33e-3" style="edgeStyle=orthogonalEdgeStyle;rounded=0;orthogonalLoop=1;jettySize=auto;html=1;exitX=0.5;exitY=1;exitDx=0;exitDy=0;entryX=1;entryY=0.5;entryDx=0;entryDy=0;" parent="p2lohj0I56FqNKijgw4W-19" source="p2lohj0I56FqNKijgw4W-10" target="p2lohj0I56FqNKijgw4W-11" edge="1">
          <mxGeometry relative="1" as="geometry"/>
        </mxCell>
        <mxCell id="p2lohj0I56FqNKijgw4W-10" value="出库管理" style="rounded=0;whiteSpace=wrap;html=1;" parent="p2lohj0I56FqNKijgw4W-19" vertex="1">
          <mxGeometry x="305.9983333333334" y="30" width="73.05" height="35" as="geometry"/>
        </mxCell>
        <mxCell id="p2lohj0I56FqNKijgw4W-11" value="库存管理" style="rounded=0;whiteSpace=wrap;html=1;" parent="p2lohj0I56FqNKijgw4W-19" vertex="1">
          <mxGeometry x="206.975" y="70" width="73.05" height="35" as="geometry"/>
        </mxCell>
        <mxCell id="wDsB2jIVfjci3oLpeVPu-2" value="" style="group" parent="WIyWlLk6GJQsqaUBKTNV-1" vertex="1" connectable="0">
          <mxGeometry x="40" y="410" width="487" height="80" as="geometry"/>
        </mxCell>
        <mxCell id="p2lohj0I56FqNKijgw4W-1" value="WMS 基础数据" style="rounded=0;whiteSpace=wrap;html=1;align=left;" parent="wDsB2jIVfjci3oLpeVPu-2" vertex="1">
          <mxGeometry width="487" height="80" as="geometry"/>
        </mxCell>
        <mxCell id="p2lohj0I56FqNKijgw4W-2" value="产品" style="rounded=0;whiteSpace=wrap;html=1;" parent="wDsB2jIVfjci3oLpeVPu-2" vertex="1">
          <mxGeometry x="105.51666666666665" y="22.5" width="73.05" height="35" as="geometry"/>
        </mxCell>
        <mxCell id="p2lohj0I56FqNKijgw4W-5" value="库区库位" style="rounded=0;whiteSpace=wrap;html=1;" parent="wDsB2jIVfjci3oLpeVPu-2" vertex="1">
          <mxGeometry x="305.9983333333333" y="22.5" width="73.05" height="35" as="geometry"/>
        </mxCell>
        <mxCell id="p2lohj0I56FqNKijgw4W-6" value="规则" style="rounded=0;whiteSpace=wrap;html=1;" parent="wDsB2jIVfjci3oLpeVPu-2" vertex="1">
          <mxGeometry x="206.975" y="22.5" width="73.05" height="35" as="geometry"/>
        </mxCell>
        <mxCell id="p2lohj0I56FqNKijgw4W-4" style="edgeStyle=orthogonalEdgeStyle;rounded=0;orthogonalLoop=1;jettySize=auto;html=1;exitX=0.5;exitY=1;exitDx=0;exitDy=0;" parent="wDsB2jIVfjci3oLpeVPu-2" source="p2lohj0I56FqNKijgw4W-1" target="p2lohj0I56FqNKijgw4W-1" edge="1">
          <mxGeometry relative="1" as="geometry"/>
        </mxCell>
        <mxCell id="wDsB2jIVfjci3oLpeVPu-3" value="" style="group;align=left;" parent="WIyWlLk6GJQsqaUBKTNV-1" vertex="1" connectable="0">
          <mxGeometry x="40" y="90" width="487" height="80" as="geometry"/>
        </mxCell>
        <mxCell id="p2lohj0I56FqNKijgw4W-12" value="报表统计" style="rounded=0;whiteSpace=wrap;html=1;align=left;" parent="wDsB2jIVfjci3oLpeVPu-3" vertex="1">
          <mxGeometry width="487" height="80" as="geometry"/>
        </mxCell>
        <mxCell id="p2lohj0I56FqNKijgw4W-15" value="首页看板" style="rounded=0;whiteSpace=wrap;html=1;" parent="wDsB2jIVfjci3oLpeVPu-3" vertex="1">
          <mxGeometry x="103.08166666666666" y="22.5" width="73.05" height="35" as="geometry"/>
        </mxCell>
        <mxCell id="p2lohj0I56FqNKijgw4W-17" value="报表管理" style="rounded=0;whiteSpace=wrap;html=1;" parent="wDsB2jIVfjci3oLpeVPu-3" vertex="1">
          <mxGeometry x="305.99833333333333" y="22.5" width="73.05" height="35" as="geometry"/>
        </mxCell>
        <mxCell id="IpZOTP64NA2XFBKvStlP-7" value="" style="group" parent="WIyWlLk6GJQsqaUBKTNV-1" vertex="1" connectable="0">
          <mxGeometry x="40" y="544" width="487" height="80" as="geometry"/>
        </mxCell>
        <mxCell id="IpZOTP64NA2XFBKvStlP-8" value="公共数据" style="rounded=0;whiteSpace=wrap;html=1;align=left;" parent="IpZOTP64NA2XFBKvStlP-7" vertex="1">
          <mxGeometry width="487" height="80" as="geometry"/>
        </mxCell>
        <mxCell id="IpZOTP64NA2XFBKvStlP-9" value="产品" style="rounded=0;whiteSpace=wrap;html=1;" parent="IpZOTP64NA2XFBKvStlP-7" vertex="1">
          <mxGeometry x="105.51666666666667" y="22.5" width="73.05" height="35" as="geometry"/>
        </mxCell>
        <mxCell id="IpZOTP64NA2XFBKvStlP-10" value="客户" style="rounded=0;whiteSpace=wrap;html=1;" parent="IpZOTP64NA2XFBKvStlP-7" vertex="1">
          <mxGeometry x="305.99833333333333" y="22.5" width="73.05" height="35" as="geometry"/>
        </mxCell>
        <mxCell id="IpZOTP64NA2XFBKvStlP-11" value="仓库" style="rounded=0;whiteSpace=wrap;html=1;" parent="IpZOTP64NA2XFBKvStlP-7" vertex="1">
          <mxGeometry x="206.975" y="22.5" width="73.05" height="35" as="geometry"/>
        </mxCell>
        <mxCell id="IpZOTP64NA2XFBKvStlP-12" style="edgeStyle=orthogonalEdgeStyle;rounded=0;orthogonalLoop=1;jettySize=auto;html=1;exitX=0.5;exitY=1;exitDx=0;exitDy=0;" parent="IpZOTP64NA2XFBKvStlP-7" source="IpZOTP64NA2XFBKvStlP-8" target="IpZOTP64NA2XFBKvStlP-8" edge="1">
          <mxGeometry relative="1" as="geometry"/>
        </mxCell>
        <mxCell id="GnM0qBkE5uQE6rj0o33e-0" style="edgeStyle=orthogonalEdgeStyle;shape=flexArrow;rounded=0;orthogonalLoop=1;jettySize=auto;html=1;exitX=0.5;exitY=1;exitDx=0;exitDy=0;entryX=0.5;entryY=0;entryDx=0;entryDy=0;" parent="WIyWlLk6GJQsqaUBKTNV-1" source="p2lohj0I56FqNKijgw4W-12" target="p2lohj0I56FqNKijgw4W-8" edge="1">
          <mxGeometry relative="1" as="geometry"/>
        </mxCell>
        <mxCell id="GnM0qBkE5uQE6rj0o33e-1" style="edgeStyle=orthogonalEdgeStyle;shape=flexArrow;rounded=0;orthogonalLoop=1;jettySize=auto;html=1;exitX=0.5;exitY=1;exitDx=0;exitDy=0;" parent="WIyWlLk6GJQsqaUBKTNV-1" source="p2lohj0I56FqNKijgw4W-8" target="p2lohj0I56FqNKijgw4W-1" edge="1">
          <mxGeometry relative="1" as="geometry"/>
        </mxCell>
        <mxCell id="GnM0qBkE5uQE6rj0o33e-2" style="edgeStyle=orthogonalEdgeStyle;shape=flexArrow;rounded=0;orthogonalLoop=1;jettySize=auto;html=1;exitX=0.5;exitY=1;exitDx=0;exitDy=0;entryX=0.5;entryY=0;entryDx=0;entryDy=0;" parent="WIyWlLk6GJQsqaUBKTNV-1" source="p2lohj0I56FqNKijgw4W-1" target="IpZOTP64NA2XFBKvStlP-8" edge="1">
          <mxGeometry relative="1" as="geometry"/>
        </mxCell>
        <mxCell id="x6c3SZ51AIooDixPRS1q-2" style="edgeStyle=orthogonalEdgeStyle;shape=flexArrow;rounded=0;orthogonalLoop=1;jettySize=auto;html=1;exitX=0;exitY=0.5;exitDx=0;exitDy=0;entryX=1;entryY=0.5;entryDx=0;entryDy=0;" edge="1" parent="WIyWlLk6GJQsqaUBKTNV-1" source="x6c3SZ51AIooDixPRS1q-0" target="p2lohj0I56FqNKijgw4W-8">
          <mxGeometry relative="1" as="geometry"/>
        </mxCell>
        <mxCell id="x6c3SZ51AIooDixPRS1q-0" value="OMS" style="rounded=0;whiteSpace=wrap;html=1;" vertex="1" parent="WIyWlLk6GJQsqaUBKTNV-1">
          <mxGeometry x="600" y="210" width="80" height="160" as="geometry"/>
        </mxCell>
        <mxCell id="x6c3SZ51AIooDixPRS1q-4" style="edgeStyle=orthogonalEdgeStyle;shape=flexArrow;rounded=0;orthogonalLoop=1;jettySize=auto;html=1;exitX=1;exitY=0.5;exitDx=0;exitDy=0;entryX=0;entryY=0.5;entryDx=0;entryDy=0;" edge="1" parent="WIyWlLk6GJQsqaUBKTNV-1" source="p2lohj0I56FqNKijgw4W-8" target="x6c3SZ51AIooDixPRS1q-0">
          <mxGeometry relative="1" as="geometry"/>
        </mxCell>
      </root>
    </mxGraphModel>
  </diagram>
  <diagram id="_dmEQ2CWXWXBdNcIhgWX" name="库内管理">
    <mxGraphModel dx="1373" dy="807" grid="1" gridSize="10" guides="1" tooltips="1" connect="1" arrows="1" fold="1" page="1" pageScale="1" pageWidth="827" pageHeight="1169" math="0" shadow="0">
      <root>
        <mxCell id="AeVPsp2suv4CSkwsUDi--0"/>
        <mxCell id="AeVPsp2suv4CSkwsUDi--1" parent="AeVPsp2suv4CSkwsUDi--0"/>
        <mxCell id="XXgWKt4nKnaz3Ek82noA-0" style="edgeStyle=orthogonalEdgeStyle;rounded=0;orthogonalLoop=1;jettySize=auto;html=1;entryX=1;entryY=0.5;entryDx=0;entryDy=0;" parent="AeVPsp2suv4CSkwsUDi--1" source="c_K6qTn9qbhVAkiae-gx-0" target="c_K6qTn9qbhVAkiae-gx-3" edge="1">
          <mxGeometry relative="1" as="geometry"/>
        </mxCell>
        <mxCell id="XXgWKt4nKnaz3Ek82noA-1" value="收货时创建" style="text;html=1;align=center;verticalAlign=middle;resizable=0;points=[];labelBackgroundColor=#ffffff;" parent="XXgWKt4nKnaz3Ek82noA-0" vertex="1" connectable="0">
          <mxGeometry x="0.3273" y="-1" relative="1" as="geometry">
            <mxPoint x="23" y="1" as="offset"/>
          </mxGeometry>
        </mxCell>
        <mxCell id="c_K6qTn9qbhVAkiae-gx-0" value="库存" style="rounded=0;whiteSpace=wrap;html=1;" parent="AeVPsp2suv4CSkwsUDi--1" vertex="1">
          <mxGeometry x="280" y="160" width="80" height="40" as="geometry"/>
        </mxCell>
        <mxCell id="c_K6qTn9qbhVAkiae-gx-6" value="盘点任务" style="edgeStyle=orthogonalEdgeStyle;rounded=0;orthogonalLoop=1;jettySize=auto;html=1;entryX=1;entryY=0.5;entryDx=0;entryDy=0;" parent="AeVPsp2suv4CSkwsUDi--1" source="c_K6qTn9qbhVAkiae-gx-1" target="c_K6qTn9qbhVAkiae-gx-0" edge="1">
          <mxGeometry relative="1" as="geometry"/>
        </mxCell>
        <mxCell id="c_K6qTn9qbhVAkiae-gx-1" value="盘点任务" style="rounded=0;whiteSpace=wrap;html=1;" parent="AeVPsp2suv4CSkwsUDi--1" vertex="1">
          <mxGeometry x="480" y="160" width="80" height="40" as="geometry"/>
        </mxCell>
        <mxCell id="c_K6qTn9qbhVAkiae-gx-3" value="入库" style="shape=process;whiteSpace=wrap;html=1;backgroundOutline=1;" parent="AeVPsp2suv4CSkwsUDi--1" vertex="1">
          <mxGeometry x="70" y="160" width="100" height="40" as="geometry"/>
        </mxCell>
        <mxCell id="c_K6qTn9qbhVAkiae-gx-8" style="edgeStyle=orthogonalEdgeStyle;rounded=0;orthogonalLoop=1;jettySize=auto;html=1;exitX=0;exitY=0.5;exitDx=0;exitDy=0;" parent="AeVPsp2suv4CSkwsUDi--1" source="c_K6qTn9qbhVAkiae-gx-7" target="c_K6qTn9qbhVAkiae-gx-0" edge="1">
          <mxGeometry relative="1" as="geometry"/>
        </mxCell>
        <mxCell id="c_K6qTn9qbhVAkiae-gx-7" value="库存调整单" style="rounded=0;whiteSpace=wrap;html=1;" parent="AeVPsp2suv4CSkwsUDi--1" vertex="1">
          <mxGeometry x="360" y="280" width="80" height="40" as="geometry"/>
        </mxCell>
      </root>
    </mxGraphModel>
  </diagram>
  <diagram id="MH7IzZj1xmB_xitSccpe" name="仓库">
    <mxGraphModel dx="1373" dy="807" grid="0" gridSize="10" guides="0" tooltips="0" connect="1" arrows="1" fold="1" page="1" pageScale="1" pageWidth="827" pageHeight="1169" math="0" shadow="0">
      <root>
        <mxCell id="59QUtNQ4SOPwAGU53SB5-0"/>
        <mxCell id="59QUtNQ4SOPwAGU53SB5-1" parent="59QUtNQ4SOPwAGU53SB5-0"/>
        <mxCell id="dOhIRANZ3TUlPWaGsXK6-0" value="" style="group" parent="59QUtNQ4SOPwAGU53SB5-1" vertex="1" connectable="0">
          <mxGeometry x="120" y="80" width="560" height="380" as="geometry"/>
        </mxCell>
        <mxCell id="59QUtNQ4SOPwAGU53SB5-2" value="" style="whiteSpace=wrap;html=1;aspect=fixed;" parent="dOhIRANZ3TUlPWaGsXK6-0" vertex="1">
          <mxGeometry x="80" width="380" height="380" as="geometry"/>
        </mxCell>
        <mxCell id="59QUtNQ4SOPwAGU53SB5-3" value="收货库位" style="rounded=0;whiteSpace=wrap;html=1;" parent="dOhIRANZ3TUlPWaGsXK6-0" vertex="1">
          <mxGeometry x="80" y="40" width="80" height="40" as="geometry"/>
        </mxCell>
        <mxCell id="59QUtNQ4SOPwAGU53SB5-10" style="edgeStyle=orthogonalEdgeStyle;rounded=0;orthogonalLoop=1;jettySize=auto;html=1;exitX=0;exitY=0.5;exitDx=0;exitDy=0;" parent="dOhIRANZ3TUlPWaGsXK6-0" source="59QUtNQ4SOPwAGU53SB5-4" edge="1">
          <mxGeometry relative="1" as="geometry">
            <mxPoint x="10" y="300" as="targetPoint"/>
          </mxGeometry>
        </mxCell>
        <mxCell id="59QUtNQ4SOPwAGU53SB5-14" value="出库" style="text;html=1;align=center;verticalAlign=middle;resizable=0;points=[];labelBackgroundColor=#ffffff;" parent="59QUtNQ4SOPwAGU53SB5-10" vertex="1" connectable="0">
          <mxGeometry x="-0.0857" relative="1" as="geometry">
            <mxPoint as="offset"/>
          </mxGeometry>
        </mxCell>
        <mxCell id="59QUtNQ4SOPwAGU53SB5-4" value="出库库位" style="rounded=0;whiteSpace=wrap;html=1;" parent="dOhIRANZ3TUlPWaGsXK6-0" vertex="1">
          <mxGeometry x="80" y="280" width="80" height="40" as="geometry"/>
        </mxCell>
        <mxCell id="59QUtNQ4SOPwAGU53SB5-9" style="edgeStyle=orthogonalEdgeStyle;rounded=0;orthogonalLoop=1;jettySize=auto;html=1;exitX=0.5;exitY=1;exitDx=0;exitDy=0;entryX=0.5;entryY=0;entryDx=0;entryDy=0;" parent="dOhIRANZ3TUlPWaGsXK6-0" source="59QUtNQ4SOPwAGU53SB5-5" target="59QUtNQ4SOPwAGU53SB5-4" edge="1">
          <mxGeometry relative="1" as="geometry"/>
        </mxCell>
        <mxCell id="59QUtNQ4SOPwAGU53SB5-5" value="拣货库位" style="rounded=0;whiteSpace=wrap;html=1;" parent="dOhIRANZ3TUlPWaGsXK6-0" vertex="1">
          <mxGeometry x="80" y="210" width="80" height="40" as="geometry"/>
        </mxCell>
        <mxCell id="59QUtNQ4SOPwAGU53SB5-8" style="edgeStyle=orthogonalEdgeStyle;rounded=0;orthogonalLoop=1;jettySize=auto;html=1;exitX=0;exitY=0.5;exitDx=0;exitDy=0;entryX=0.5;entryY=0;entryDx=0;entryDy=0;" parent="dOhIRANZ3TUlPWaGsXK6-0" source="59QUtNQ4SOPwAGU53SB5-6" target="59QUtNQ4SOPwAGU53SB5-5" edge="1">
          <mxGeometry relative="1" as="geometry"/>
        </mxCell>
        <mxCell id="59QUtNQ4SOPwAGU53SB5-6" value="储货库位" style="rounded=0;whiteSpace=wrap;html=1;" parent="dOhIRANZ3TUlPWaGsXK6-0" vertex="1">
          <mxGeometry x="200" width="360" height="380" as="geometry"/>
        </mxCell>
        <mxCell id="59QUtNQ4SOPwAGU53SB5-7" style="edgeStyle=orthogonalEdgeStyle;rounded=0;orthogonalLoop=1;jettySize=auto;html=1;exitX=1;exitY=0.5;exitDx=0;exitDy=0;entryX=0;entryY=0.158;entryDx=0;entryDy=0;entryPerimeter=0;" parent="dOhIRANZ3TUlPWaGsXK6-0" source="59QUtNQ4SOPwAGU53SB5-3" target="59QUtNQ4SOPwAGU53SB5-6" edge="1">
          <mxGeometry relative="1" as="geometry"/>
        </mxCell>
        <mxCell id="59QUtNQ4SOPwAGU53SB5-12" style="edgeStyle=orthogonalEdgeStyle;rounded=0;orthogonalLoop=1;jettySize=auto;html=1;exitX=1;exitY=0.5;exitDx=0;exitDy=0;entryX=0;entryY=0.5;entryDx=0;entryDy=0;" parent="dOhIRANZ3TUlPWaGsXK6-0" target="59QUtNQ4SOPwAGU53SB5-3" edge="1">
          <mxGeometry relative="1" as="geometry">
            <mxPoint y="60" as="sourcePoint"/>
          </mxGeometry>
        </mxCell>
        <mxCell id="59QUtNQ4SOPwAGU53SB5-13" value="入库" style="text;html=1;align=center;verticalAlign=middle;resizable=0;points=[];labelBackgroundColor=#ffffff;" parent="59QUtNQ4SOPwAGU53SB5-12" vertex="1" connectable="0">
          <mxGeometry x="-0.025" y="4" relative="1" as="geometry">
            <mxPoint as="offset"/>
          </mxGeometry>
        </mxCell>
      </root>
    </mxGraphModel>
  </diagram>
  <diagram id="FK1v9UKUuv4saiX9IkXu" name="出库单状态">
    <mxGraphModel dx="1373" dy="807" grid="1" gridSize="10" guides="1" tooltips="1" connect="1" arrows="1" fold="1" page="1" pageScale="1" pageWidth="827" pageHeight="1169" math="0" shadow="0">
      <root>
        <mxCell id="r475LIMoSVZU1Vdwge1M-0"/>
        <mxCell id="r475LIMoSVZU1Vdwge1M-1" parent="r475LIMoSVZU1Vdwge1M-0"/>
        <mxCell id="r475LIMoSVZU1Vdwge1M-31" value="创建波次" style="edgeStyle=orthogonalEdgeStyle;rounded=0;orthogonalLoop=1;jettySize=auto;html=1;exitX=1;exitY=0.5;exitDx=0;exitDy=0;entryX=0;entryY=0.5;entryDx=0;entryDy=0;" parent="r475LIMoSVZU1Vdwge1M-1" source="r475LIMoSVZU1Vdwge1M-25" target="r475LIMoSVZU1Vdwge1M-26" edge="1">
          <mxGeometry relative="1" as="geometry"/>
        </mxCell>
        <mxCell id="r475LIMoSVZU1Vdwge1M-25" value="已创建" style="ellipse;whiteSpace=wrap;html=1;" parent="r475LIMoSVZU1Vdwge1M-1" vertex="1">
          <mxGeometry x="140" y="40" width="100" height="50" as="geometry"/>
        </mxCell>
        <mxCell id="r475LIMoSVZU1Vdwge1M-32" value="完成补货" style="edgeStyle=orthogonalEdgeStyle;rounded=0;orthogonalLoop=1;jettySize=auto;html=1;exitX=1;exitY=0.5;exitDx=0;exitDy=0;" parent="r475LIMoSVZU1Vdwge1M-1" source="r475LIMoSVZU1Vdwge1M-26" target="r475LIMoSVZU1Vdwge1M-27" edge="1">
          <mxGeometry relative="1" as="geometry"/>
        </mxCell>
        <mxCell id="r475LIMoSVZU1Vdwge1M-26" value="待补货" style="ellipse;whiteSpace=wrap;html=1;" parent="r475LIMoSVZU1Vdwge1M-1" vertex="1">
          <mxGeometry x="350" y="40" width="100" height="50" as="geometry"/>
        </mxCell>
        <mxCell id="r475LIMoSVZU1Vdwge1M-33" value="完成拣货" style="edgeStyle=orthogonalEdgeStyle;rounded=0;orthogonalLoop=1;jettySize=auto;html=1;exitX=0.5;exitY=1;exitDx=0;exitDy=0;entryX=0.5;entryY=0;entryDx=0;entryDy=0;" parent="r475LIMoSVZU1Vdwge1M-1" source="r475LIMoSVZU1Vdwge1M-27" target="r475LIMoSVZU1Vdwge1M-28" edge="1">
          <mxGeometry relative="1" as="geometry"/>
        </mxCell>
        <mxCell id="r475LIMoSVZU1Vdwge1M-27" value="待拣货" style="ellipse;whiteSpace=wrap;html=1;" parent="r475LIMoSVZU1Vdwge1M-1" vertex="1">
          <mxGeometry x="540" y="40" width="100" height="50" as="geometry"/>
        </mxCell>
        <mxCell id="r475LIMoSVZU1Vdwge1M-34" style="edgeStyle=orthogonalEdgeStyle;rounded=0;orthogonalLoop=1;jettySize=auto;html=1;exitX=0;exitY=0.5;exitDx=0;exitDy=0;" parent="r475LIMoSVZU1Vdwge1M-1" source="r475LIMoSVZU1Vdwge1M-28" target="r475LIMoSVZU1Vdwge1M-29" edge="1">
          <mxGeometry relative="1" as="geometry"/>
        </mxCell>
        <mxCell id="r475LIMoSVZU1Vdwge1M-36" value="提交复核" style="text;html=1;align=center;verticalAlign=middle;resizable=0;points=[];labelBackgroundColor=#ffffff;" parent="r475LIMoSVZU1Vdwge1M-34" vertex="1" connectable="0">
          <mxGeometry x="-0.1556" y="-4" relative="1" as="geometry">
            <mxPoint as="offset"/>
          </mxGeometry>
        </mxCell>
        <mxCell id="r475LIMoSVZU1Vdwge1M-28" value="待复核" style="ellipse;whiteSpace=wrap;html=1;" parent="r475LIMoSVZU1Vdwge1M-1" vertex="1">
          <mxGeometry x="540" y="150" width="100" height="50" as="geometry"/>
        </mxCell>
        <mxCell id="r475LIMoSVZU1Vdwge1M-35" style="edgeStyle=orthogonalEdgeStyle;rounded=0;orthogonalLoop=1;jettySize=auto;html=1;exitX=0;exitY=0.5;exitDx=0;exitDy=0;entryX=1;entryY=0.5;entryDx=0;entryDy=0;" parent="r475LIMoSVZU1Vdwge1M-1" source="r475LIMoSVZU1Vdwge1M-29" target="r475LIMoSVZU1Vdwge1M-30" edge="1">
          <mxGeometry relative="1" as="geometry"/>
        </mxCell>
        <mxCell id="r475LIMoSVZU1Vdwge1M-40" value="提交出库" style="text;html=1;align=center;verticalAlign=middle;resizable=0;points=[];labelBackgroundColor=#ffffff;" parent="r475LIMoSVZU1Vdwge1M-35" vertex="1" connectable="0">
          <mxGeometry x="-0.0727" y="-1" relative="1" as="geometry">
            <mxPoint as="offset"/>
          </mxGeometry>
        </mxCell>
        <mxCell id="r475LIMoSVZU1Vdwge1M-29" value="待出库" style="ellipse;whiteSpace=wrap;html=1;" parent="r475LIMoSVZU1Vdwge1M-1" vertex="1">
          <mxGeometry x="350" y="150" width="100" height="50" as="geometry"/>
        </mxCell>
        <mxCell id="r475LIMoSVZU1Vdwge1M-30" value="已出库" style="ellipse;whiteSpace=wrap;html=1;" parent="r475LIMoSVZU1Vdwge1M-1" vertex="1">
          <mxGeometry x="140" y="150" width="100" height="50" as="geometry"/>
        </mxCell>
      </root>
    </mxGraphModel>
  </diagram>
  <diagram id="FiDjSoAUOeOKGRWMWeUv" name="第 5 页">
    <mxGraphModel dx="1373" dy="773" grid="1" gridSize="10" guides="1" tooltips="1" connect="1" arrows="1" fold="1" page="1" pageScale="1" pageWidth="827" pageHeight="1169" math="0" shadow="0">
      <root>
        <mxCell id="VM5-nRnONVAdlqI0jS42-0"/>
        <mxCell id="VM5-nRnONVAdlqI0jS42-1" parent="VM5-nRnONVAdlqI0jS42-0"/>
        <mxCell id="VM5-nRnONVAdlqI0jS42-9" style="edgeStyle=orthogonalEdgeStyle;rounded=0;orthogonalLoop=1;jettySize=auto;html=1;exitX=0.75;exitY=1;exitDx=0;exitDy=0;" edge="1" parent="VM5-nRnONVAdlqI0jS42-1" source="VM5-nRnONVAdlqI0jS42-2" target="VM5-nRnONVAdlqI0jS42-5">
          <mxGeometry relative="1" as="geometry"/>
        </mxCell>
        <mxCell id="VM5-nRnONVAdlqI0jS42-12" style="edgeStyle=orthogonalEdgeStyle;rounded=0;orthogonalLoop=1;jettySize=auto;html=1;exitX=0.25;exitY=1;exitDx=0;exitDy=0;entryX=0.75;entryY=0;entryDx=0;entryDy=0;" edge="1" parent="VM5-nRnONVAdlqI0jS42-1" source="VM5-nRnONVAdlqI0jS42-2" target="VM5-nRnONVAdlqI0jS42-4">
          <mxGeometry relative="1" as="geometry"/>
        </mxCell>
        <mxCell id="VM5-nRnONVAdlqI0jS42-2" value="OMS" style="rounded=1;whiteSpace=wrap;html=1;" vertex="1" parent="VM5-nRnONVAdlqI0jS42-1">
          <mxGeometry x="320" y="30" width="320" height="60" as="geometry"/>
        </mxCell>
        <mxCell id="VM5-nRnONVAdlqI0jS42-10" style="edgeStyle=orthogonalEdgeStyle;rounded=0;orthogonalLoop=1;jettySize=auto;html=1;exitX=0.75;exitY=0;exitDx=0;exitDy=0;entryX=0.25;entryY=1;entryDx=0;entryDy=0;" edge="1" parent="VM5-nRnONVAdlqI0jS42-1" source="VM5-nRnONVAdlqI0jS42-4" target="VM5-nRnONVAdlqI0jS42-2">
          <mxGeometry relative="1" as="geometry"/>
        </mxCell>
        <mxCell id="VM5-nRnONVAdlqI0jS42-14" style="edgeStyle=orthogonalEdgeStyle;rounded=0;orthogonalLoop=1;jettySize=auto;html=1;exitX=1;exitY=0.5;exitDx=0;exitDy=0;entryX=0;entryY=0.5;entryDx=0;entryDy=0;" edge="1" parent="VM5-nRnONVAdlqI0jS42-1" source="VM5-nRnONVAdlqI0jS42-4" target="VM5-nRnONVAdlqI0jS42-5">
          <mxGeometry relative="1" as="geometry"/>
        </mxCell>
        <mxCell id="VM5-nRnONVAdlqI0jS42-18" style="edgeStyle=orthogonalEdgeStyle;rounded=0;orthogonalLoop=1;jettySize=auto;html=1;exitX=0.5;exitY=1;exitDx=0;exitDy=0;entryX=0.25;entryY=0;entryDx=0;entryDy=0;" edge="1" parent="VM5-nRnONVAdlqI0jS42-1" source="VM5-nRnONVAdlqI0jS42-4" target="VM5-nRnONVAdlqI0jS42-15">
          <mxGeometry relative="1" as="geometry"/>
        </mxCell>
        <mxCell id="VM5-nRnONVAdlqI0jS42-4" value="Flow" style="rounded=1;whiteSpace=wrap;html=1;" vertex="1" parent="VM5-nRnONVAdlqI0jS42-1">
          <mxGeometry x="310" y="200" width="120" height="60" as="geometry"/>
        </mxCell>
        <mxCell id="VM5-nRnONVAdlqI0jS42-17" style="edgeStyle=orthogonalEdgeStyle;rounded=0;orthogonalLoop=1;jettySize=auto;html=1;exitX=0.5;exitY=1;exitDx=0;exitDy=0;entryX=0.75;entryY=0;entryDx=0;entryDy=0;" edge="1" parent="VM5-nRnONVAdlqI0jS42-1" source="VM5-nRnONVAdlqI0jS42-5" target="VM5-nRnONVAdlqI0jS42-15">
          <mxGeometry relative="1" as="geometry"/>
        </mxCell>
        <mxCell id="VM5-nRnONVAdlqI0jS42-5" value="Stock" style="rounded=1;whiteSpace=wrap;html=1;" vertex="1" parent="VM5-nRnONVAdlqI0jS42-1">
          <mxGeometry x="500" y="200" width="120" height="60" as="geometry"/>
        </mxCell>
        <mxCell id="VM5-nRnONVAdlqI0jS42-15" value="Resource" style="rounded=1;whiteSpace=wrap;html=1;align=left;" vertex="1" parent="VM5-nRnONVAdlqI0jS42-1">
          <mxGeometry x="310" y="310" width="320" height="60" as="geometry"/>
        </mxCell>
      </root>
    </mxGraphModel>
  </diagram>
</mxfile>
